<?xml version="1.0" encoding="utf-8"?>
<!-- Generator: Adobe Illustrator 26.1.0, SVG Export Plug-In . SVG Version: 6.00 Build 0)  -->
<svg version="1.2" baseProfile="tiny" id="Layer_1" xmlns="http://www.w3.org/2000/svg" xmlns:xlink="http://www.w3.org/1999/xlink"
	 x="0px" y="0px" viewBox="0 0 20 16" overflow="visible" xml:space="preserve">
<path fill="#FFFFFF" d="M0,14.5v-4.1c0-0.5,0.3-1,0.9-1.3c0.6-0.3,1.3-0.5,2.3-0.5c0.2,0,0.3,0,0.5,0s0.3,0,0.5,0.1
	C4,8.9,3.9,9.2,3.8,9.4c-0.1,0.2-0.1,0.5-0.1,0.8v4.4H0z M5,14.5v-4.4C5,9.7,5.1,9.3,5.4,9c0.2-0.4,0.6-0.7,1-1
	c0.4-0.3,1-0.5,1.6-0.6c0.6-0.1,1.3-0.2,2-0.2c0.7,0,1.4,0.1,2,0.2c0.6,0.1,1.1,0.3,1.6,0.6c0.4,0.3,0.8,0.6,1,1
	c0.2,0.4,0.4,0.8,0.4,1.2v4.4H5z M16.2,14.5v-4.4c0-0.3,0-0.5-0.1-0.8c0-0.2-0.1-0.5-0.2-0.7c0.2,0,0.3,0,0.5-0.1c0.2,0,0.3,0,0.5,0
	c0.9,0,1.7,0.2,2.3,0.5c0.6,0.3,0.9,0.8,0.9,1.3v4.1H16.2z M3.1,8c-0.4,0-0.7-0.1-1-0.4c-0.3-0.3-0.4-0.6-0.4-1c0-0.4,0.1-0.7,0.4-1
	c0.3-0.3,0.6-0.4,1-0.4s0.7,0.1,1,0.4c0.3,0.3,0.4,0.6,0.4,1c0,0.4-0.1,0.7-0.4,1C3.9,7.9,3.5,8,3.1,8z M16.9,8
	c-0.4,0-0.7-0.1-1-0.4c-0.3-0.3-0.4-0.6-0.4-1c0-0.4,0.1-0.7,0.4-1c0.3-0.3,0.6-0.4,1-0.4s0.7,0.1,1,0.4c0.3,0.3,0.4,0.6,0.4,1
	c0,0.4-0.1,0.7-0.4,1C17.6,7.9,17.3,8,16.9,8z M10,6.5c-0.7,0-1.3-0.2-1.8-0.7S7.5,4.7,7.5,4c0-0.7,0.2-1.3,0.7-1.8
	C8.7,1.8,9.3,1.5,10,1.5c0.7,0,1.3,0.2,1.8,0.7c0.5,0.5,0.7,1.1,0.7,1.8c0,0.7-0.2,1.3-0.7,1.8C11.3,6.3,10.7,6.5,10,6.5z"/>
</svg>
