<?xml version="1.0" encoding="utf-8"?>
<!-- Generator: Adobe Illustrator 26.1.0, SVG Export Plug-In . SVG Version: 6.00 Build 0)  -->
<svg version="1.2" baseProfile="tiny" id="Layer_1" xmlns="http://www.w3.org/2000/svg" xmlns:xlink="http://www.w3.org/1999/xlink"
	 x="0px" y="0px" viewBox="0 0 16 16" overflow="visible" xml:space="preserve">
<path fill="#FFFFFF" d="M2.8,14.1c-0.5,0-0.8-0.2-1-0.7C1.6,13,1.7,12.6,2,12.2l4.2-4.7V2.9H5.3c-0.1,0-0.3,0-0.4-0.1
	C4.8,2.7,4.8,2.6,4.8,2.4c0-0.1,0-0.3,0.1-0.4C5,2,5.2,1.9,5.3,1.9h5.4c0.1,0,0.3,0,0.4,0.1c0.1,0.1,0.1,0.2,0.1,0.4
	c0,0.1,0,0.3-0.1,0.4c-0.1,0.1-0.2,0.1-0.4,0.1H9.8v4.6l4.2,4.7c0.3,0.4,0.4,0.8,0.2,1.2c-0.2,0.4-0.5,0.7-1,0.7H2.8z"/>
</svg>
