<svg width="14" height="18" viewBox="0 0 14 18" fill="none" xmlns="http://www.w3.org/2000/svg">
<path d="M9.08301 13.7915C9.37467 13.7915 9.6212 13.6908 9.82259 13.4894C10.024 13.288 10.1247 13.0415 10.1247 12.7498C10.1247 12.4582 10.024 12.2116 9.82259 12.0103C9.6212 11.8089 9.37467 11.7082 9.08301 11.7082C8.79134 11.7082 8.54481 11.8089 8.34342 12.0103C8.14204 12.2116 8.04134 12.4582 8.04134 12.7498C8.04134 13.0415 8.14204 13.288 8.34342 13.4894C8.54481 13.6908 8.79134 13.7915 9.08301 13.7915ZM4.87467 13.6665L9.99967 8.5415L9.12467 7.6665L3.99967 12.7915L4.87467 13.6665ZM4.91634 9.62484C5.20801 9.62484 5.45454 9.52414 5.65592 9.32275C5.85731 9.12136 5.95801 8.87484 5.95801 8.58317C5.95801 8.2915 5.85731 8.04498 5.65592 7.84359C5.45454 7.6422 5.20801 7.5415 4.91634 7.5415C4.62467 7.5415 4.37815 7.6422 4.17676 7.84359C3.97537 8.04498 3.87467 8.2915 3.87467 8.58317C3.87467 8.87484 3.97537 9.12136 4.17676 9.32275C4.37815 9.52414 4.62467 9.62484 4.91634 9.62484ZM6.99967 17.3332C5.0969 17.3332 3.51009 16.6804 2.23926 15.3748C0.968424 14.0693 0.333008 12.4443 0.333008 10.4998C0.333008 9.11095 0.885091 7.60053 1.98926 5.96859C3.09342 4.33664 4.76356 2.56928 6.99967 0.666504C9.23579 2.56928 10.9059 4.33664 12.0101 5.96859C13.1143 7.60053 13.6663 9.11095 13.6663 10.4998C13.6663 12.4443 13.0309 14.0693 11.7601 15.3748C10.4893 16.6804 8.90245 17.3332 6.99967 17.3332ZM6.99967 16.0832C8.55523 16.0832 9.8469 15.5519 10.8747 14.4894C11.9025 13.4269 12.4163 12.0971 12.4163 10.4998C12.4163 9.40261 11.9545 8.15609 11.0309 6.76025C10.1073 5.36442 8.76356 3.88873 6.99967 2.33317C5.23579 3.88873 3.89204 5.36442 2.96842 6.76025C2.04481 8.15609 1.58301 9.40261 1.58301 10.4998C1.58301 12.0971 2.0969 13.4269 3.12467 14.4894C4.15245 15.5519 5.44412 16.0832 6.99967 16.0832Z" fill="#529FBF"/>
</svg>
