<svg width="18" height="17" viewBox="0 0 18 17" fill="none" xmlns="http://www.w3.org/2000/svg">
<path d="M2.99967 16.2502C2.19412 16.2502 1.50662 15.9654 0.937175 15.396C0.36773 14.8266 0.0830078 14.1391 0.0830078 13.3335C0.0830078 12.5279 0.36773 11.8404 0.937175 11.271C1.50662 10.7016 2.19412 10.4168 2.99967 10.4168C3.54134 10.4168 4.03787 10.5627 4.48926 10.8543C4.94065 11.146 5.27051 11.5418 5.47884 12.0418L5.85384 12.896H6.77051C7.22884 12.896 7.61773 13.0627 7.93717 13.396C8.25662 13.7293 8.41634 14.1252 8.41634 14.5835C8.41634 15.0418 8.25315 15.4342 7.92676 15.7606C7.60037 16.087 7.20801 16.2502 6.74967 16.2502H2.99967ZM9.62467 14.7293C9.62467 13.8821 9.33995 13.1564 8.77051 12.5522C8.20106 11.9481 7.49967 11.646 6.66634 11.646C6.38856 10.8682 5.91634 10.2502 5.24967 9.79183C4.58301 9.3335 3.83301 9.12516 2.99967 9.16683C3.19412 7.94461 3.76704 6.94461 4.71842 6.16683C5.66981 5.38905 6.76356 5.00016 7.99967 5.00016C9.38856 5.00016 10.5691 5.48627 11.5413 6.4585C12.5136 7.43072 12.9997 8.61127 12.9997 10.0002C12.9997 11.0835 12.6906 12.0557 12.0726 12.9168C11.4545 13.7779 10.6386 14.3821 9.62467 14.7293ZM7.37467 3.9585V0.833496H8.62467V3.9585H7.37467ZM12.708 6.16683L11.833 5.271L14.0413 3.06266L14.9163 3.9585L12.708 6.16683ZM14.0413 10.6252V9.37516H17.1663V10.6252H14.0413ZM14.0622 16.9168L11.8538 14.7085L12.7497 13.8127L14.958 16.021L14.0622 16.9168ZM3.29134 6.16683L1.08301 3.9585L1.95801 3.0835L4.16634 5.29183L3.29134 6.16683Z" fill="white"/>
</svg>
