<svg width="16" height="16" viewBox="0 0 16 16" fill="none" xmlns="http://www.w3.org/2000/svg">
<path d="M7.375 15.2917V8.85417H6.95833C6.06944 8.85417 5.23264 8.68403 4.44792 8.34375C3.66319 8.00347 2.96528 7.52083 2.35417 6.89583C1.74306 6.27083 1.28125 5.54861 0.96875 4.72917C0.65625 3.90972 0.5 3.05556 0.5 2.16667V0.5H2.125C2.98611 0.5 3.8125 0.670139 4.60417 1.01042C5.39583 1.35069 6.10417 1.83333 6.72917 2.45833C7.1875 2.93056 7.56597 3.45833 7.86458 4.04167C8.16319 4.625 8.375 5.24306 8.5 5.89583C8.61111 5.72917 8.72917 5.56944 8.85417 5.41667C8.97917 5.26389 9.11111 5.11111 9.25 4.95833C9.875 4.33333 10.5833 3.85069 11.375 3.51042C12.1667 3.17014 13 3 13.875 3H15.5V4.66667C15.5 5.55556 15.3333 6.40972 15 7.22917C14.6667 8.04861 14.1944 8.77083 13.5833 9.39583C12.9583 10.0208 12.2535 10.5 11.4688 10.8333C10.684 11.1667 9.86111 11.3333 9 11.3333H8.625V15.2917H7.375Z" fill="white"/>
</svg>
