<svg width="18" height="18" viewBox="0 0 18 18" fill="none" xmlns="http://www.w3.org/2000/svg">
<path d="M9.00033 17.3334C7.83366 17.3334 6.74338 17.1147 5.72949 16.6772C4.7156 16.2397 3.83366 15.6459 3.08366 14.8959C2.33366 14.1459 1.74338 13.2605 1.31283 12.2397C0.88227 11.2188 0.666992 10.1251 0.666992 8.95841C0.666992 7.79175 0.88227 6.70494 1.31283 5.698C1.74338 4.69105 2.33366 3.81258 3.08366 3.06258C3.83366 2.31258 4.7156 1.72578 5.72949 1.30216C6.74338 0.878554 7.83366 0.666748 9.00033 0.666748C10.167 0.666748 11.2573 0.878554 12.2712 1.30216C13.285 1.72578 14.167 2.31258 14.917 3.06258C15.667 3.81258 16.2573 4.69105 16.6878 5.698C17.1184 6.70494 17.3337 7.79175 17.3337 8.95841C17.3337 10.1251 17.1184 11.2188 16.6878 12.2397C16.2573 13.2605 15.667 14.1459 14.917 14.8959C14.167 15.6459 13.285 16.2397 12.2712 16.6772C11.2573 17.1147 10.167 17.3334 9.00033 17.3334ZM9.00033 16.1251C9.48644 15.6251 9.89269 15.0522 10.2191 14.4063C10.5455 13.7605 10.8128 12.9931 11.0212 12.1042H7.00033C7.19477 12.9376 7.45519 13.6876 7.78158 14.3542C8.10796 15.0209 8.51421 15.6112 9.00033 16.1251ZM7.22949 15.8751C6.88227 15.3473 6.58366 14.7779 6.33366 14.1667C6.08366 13.5556 5.87533 12.8681 5.70866 12.1042H2.58366C3.11144 13.0904 3.72255 13.8647 4.41699 14.4272C5.11144 14.9897 6.04894 15.4723 7.22949 15.8751ZM10.792 15.8542C11.792 15.5348 12.6913 15.0556 13.4899 14.4167C14.2885 13.7779 14.9309 13.007 15.417 12.1042H12.3128C12.1323 12.8542 11.9205 13.5348 11.6774 14.1459C11.4344 14.757 11.1392 15.3265 10.792 15.8542ZM2.16699 10.8542H5.47949C5.43783 10.4792 5.41352 10.1424 5.40658 9.84383C5.39963 9.54522 5.39616 9.25008 5.39616 8.95841C5.39616 8.61119 5.4031 8.30216 5.41699 8.03133C5.43088 7.7605 5.45866 7.45841 5.50033 7.12508H2.16699C2.06977 7.45841 2.0038 7.75703 1.96908 8.02091C1.93435 8.2848 1.91699 8.5973 1.91699 8.95841C1.91699 9.31953 1.93435 9.64244 1.96908 9.92717C2.0038 10.2119 2.06977 10.5209 2.16699 10.8542ZM6.77116 10.8542H11.2503C11.3059 10.4237 11.3406 10.073 11.3545 9.80216C11.3684 9.53133 11.3753 9.25008 11.3753 8.95841C11.3753 8.68064 11.3684 8.41328 11.3545 8.15633C11.3406 7.89939 11.3059 7.55564 11.2503 7.12508H6.77116C6.7156 7.55564 6.68088 7.89939 6.66699 8.15633C6.6531 8.41328 6.64616 8.68064 6.64616 8.95841C6.64616 9.25008 6.6531 9.53133 6.66699 9.80216C6.68088 10.073 6.7156 10.4237 6.77116 10.8542ZM12.5003 10.8542H15.8337C15.9309 10.5209 15.9969 10.2119 16.0316 9.92717C16.0663 9.64244 16.0837 9.31953 16.0837 8.95841C16.0837 8.5973 16.0663 8.2848 16.0316 8.02091C15.9969 7.75703 15.9309 7.45841 15.8337 7.12508H12.5212C12.5628 7.61119 12.5906 7.98272 12.6045 8.23966C12.6184 8.49661 12.6253 8.73619 12.6253 8.95841C12.6253 9.26397 12.6149 9.55217 12.5941 9.823C12.5732 10.0938 12.542 10.4376 12.5003 10.8542ZM12.292 5.87508H15.417C14.9587 4.91675 14.3302 4.11814 13.5316 3.47925C12.733 2.84036 11.8128 2.38897 10.7712 2.12508C11.1184 2.63897 11.4135 3.19453 11.6566 3.79175C11.8996 4.38897 12.1114 5.08341 12.292 5.87508ZM7.00033 5.87508H11.042C10.8892 5.13897 10.6323 4.42716 10.2712 3.73966C9.91005 3.05216 9.48644 2.44453 9.00033 1.91675C8.55588 2.29175 8.18088 2.7848 7.87533 3.39591C7.56977 4.00703 7.2781 4.83341 7.00033 5.87508ZM2.58366 5.87508H5.72949C5.88227 5.12508 6.07671 4.45494 6.31283 3.86466C6.54894 3.27439 6.84755 2.70147 7.20866 2.14591C6.16699 2.4098 5.25727 2.85425 4.47949 3.47925C3.70171 4.10425 3.06977 4.90286 2.58366 5.87508Z" fill="white"/>
</svg>
