<svg width="18" height="18" viewBox="0 0 18 18" fill="none" xmlns="http://www.w3.org/2000/svg">
<path d="M7.08366 17.3334L6.66699 14.7084C6.4031 14.6112 6.12533 14.4792 5.83366 14.3126C5.54199 14.1459 5.28505 13.9723 5.06283 13.7917L2.60449 14.9167L0.666992 11.5001L2.91699 9.85425C2.88921 9.72925 2.87185 9.58689 2.86491 9.42716C2.85796 9.26744 2.85449 9.12508 2.85449 9.00008C2.85449 8.87508 2.85796 8.73272 2.86491 8.573C2.87185 8.41328 2.88921 8.27092 2.91699 8.14592L0.666992 6.50008L2.60449 3.08341L5.06283 4.20841C5.28505 4.02786 5.54199 3.85425 5.83366 3.68758C6.12533 3.52091 6.4031 3.39591 6.66699 3.31258L7.08366 0.666748H10.917L11.3337 3.29175C11.5975 3.38897 11.8788 3.51744 12.1774 3.67716C12.476 3.83689 12.7295 4.01397 12.9378 4.20841L15.3962 3.08341L17.3337 6.50008L15.0837 8.10425C15.1114 8.24314 15.1288 8.39244 15.1357 8.55216C15.1427 8.71189 15.1462 8.86119 15.1462 9.00008C15.1462 9.13897 15.1427 9.2848 15.1357 9.43758C15.1288 9.59036 15.1114 9.73619 15.0837 9.87508L17.3337 11.5001L15.3962 14.9167L12.9378 13.7917C12.7156 13.9723 12.4621 14.1494 12.1774 14.323C11.8927 14.4966 11.6114 14.6251 11.3337 14.7084L10.917 17.3334H7.08366ZM9.00033 11.7084C9.75033 11.7084 10.3892 11.4445 10.917 10.9167C11.4448 10.389 11.7087 9.75008 11.7087 9.00008C11.7087 8.25008 11.4448 7.61119 10.917 7.08341C10.3892 6.55564 9.75033 6.29175 9.00033 6.29175C8.25033 6.29175 7.61144 6.55564 7.08366 7.08341C6.55588 7.61119 6.29199 8.25008 6.29199 9.00008C6.29199 9.75008 6.55588 10.389 7.08366 10.9167C7.61144 11.4445 8.25033 11.7084 9.00033 11.7084Z" fill="white"/>
</svg>
