<?xml version="1.0" encoding="utf-8"?>
<!-- Generator: Adobe Illustrator 26.1.0, SVG Export Plug-In . SVG Version: 6.00 Build 0)  -->
<svg version="1.2" baseProfile="tiny" id="Layer_1" xmlns="http://www.w3.org/2000/svg" xmlns:xlink="http://www.w3.org/1999/xlink"
	 x="0px" y="0px" viewBox="0 0 12.9 12.9" overflow="visible" xml:space="preserve">
<path fill="#FFFFFF" d="M1.7,11.2V9.9c0-0.4,0.1-0.8,0.3-1.2c0.2-0.3,0.6-0.7,1-0.9C3.4,7.6,4,7.4,4.5,7.2C5.1,7.1,5.8,7,6.4,7
	c0.7,0,1.3,0.1,1.9,0.2C9,7.4,9.5,7.6,9.9,7.8c0.4,0.3,0.7,0.6,1,0.9c0.2,0.3,0.3,0.7,0.3,1.2v1.3H1.7z M6.4,6.4
	c-0.7,0-1.2-0.2-1.7-0.7s-0.7-1-0.7-1.7c0-0.7,0.2-1.2,0.7-1.7c0.5-0.5,1-0.7,1.7-0.7c0.7,0,1.2,0.2,1.7,0.7c0.5,0.5,0.7,1,0.7,1.7
	c0,0.7-0.2,1.2-0.7,1.7C7.7,6.2,7.1,6.4,6.4,6.4z"/>
</svg>
