<svg width="20" height="20" viewBox="0 0 20 20" fill="none" xmlns="http://www.w3.org/2000/svg">
<path d="M9.37467 3.9585V0.833496H10.6247V3.9585H9.37467ZM14.708 6.16683L13.833 5.29183L16.0413 3.06266L16.9163 3.9585L14.708 6.16683ZM16.0413 10.6252V9.37516H19.1663V10.6252H16.0413ZM9.37467 19.1668V16.0418H10.6247V19.1668H9.37467ZM5.27051 6.146L3.08301 3.9585L3.95801 3.0835L6.16634 5.29183L5.27051 6.146ZM16.0622 16.9168L13.833 14.7085L14.6872 13.8543L16.9372 16.021L16.0622 16.9168ZM0.833008 10.6252V9.37516H3.95801V10.6252H0.833008ZM3.97884 16.9168L3.08301 16.0418L5.27051 13.8543L5.72884 14.271L6.18717 14.7085L3.97884 16.9168ZM9.99967 15.0002C8.61079 15.0002 7.43023 14.5141 6.45801 13.5418C5.48579 12.5696 4.99967 11.3891 4.99967 10.0002C4.99967 8.61127 5.48579 7.43072 6.45801 6.4585C7.43023 5.48627 8.61079 5.00016 9.99967 5.00016C11.3886 5.00016 12.5691 5.48627 13.5413 6.4585C14.5136 7.43072 14.9997 8.61127 14.9997 10.0002C14.9997 11.3891 14.5136 12.5696 13.5413 13.5418C12.5691 14.5141 11.3886 15.0002 9.99967 15.0002Z" fill="#529FBF"/>
</svg>
