<svg width="10" height="18" viewBox="0 0 10 18" fill="none" xmlns="http://www.w3.org/2000/svg">
<path d="M4.99967 17.3332C3.8469 17.3332 2.86426 16.9269 2.05176 16.1144C1.23926 15.3019 0.833008 14.3193 0.833008 13.1665C0.833008 12.4582 0.99273 11.7915 1.31217 11.1665C1.63162 10.5415 2.10384 10.0762 2.72884 9.77067V2.93734C2.72884 2.31234 2.95106 1.77761 3.39551 1.33317C3.83995 0.888726 4.37467 0.666504 4.99967 0.666504C5.62467 0.666504 6.1594 0.888726 6.60384 1.33317C7.04829 1.77761 7.27051 2.31234 7.27051 2.93734V9.77067C7.89551 10.0762 8.36773 10.5415 8.68717 11.1665C9.00662 11.7915 9.16634 12.4582 9.16634 13.1665C9.16634 14.3193 8.76009 15.3019 7.94759 16.1144C7.13509 16.9269 6.15245 17.3332 4.99967 17.3332ZM3.97884 8.27067H6.02051V7.1665H4.99967V6.354H6.02051V4.5415H4.99967V3.729H6.02051V2.93734C6.02051 2.64567 5.92329 2.40261 5.72884 2.20817C5.5344 2.01373 5.29134 1.9165 4.99967 1.9165C4.70801 1.9165 4.46495 2.01373 4.27051 2.20817C4.07606 2.40261 3.97884 2.64567 3.97884 2.93734V8.27067Z" fill="#529FBF"/>
</svg>
