<svg width="18" height="15" viewBox="0 0 18 15" fill="none" xmlns="http://www.w3.org/2000/svg">
<path d="M8.68783 0.333334C7.93783 0.333334 7.34408 0.527779 6.90658 0.916668C6.46908 1.30556 6.25033 1.89583 6.25033 2.6875H7.66699C7.66699 2.32639 7.74685 2.05208 7.90658 1.86458C8.0663 1.67708 8.32671 1.58333 8.68783 1.58333C9.06283 1.58333 9.33019 1.66667 9.48991 1.83333C9.64963 2 9.72949 2.28472 9.72949 2.6875C9.72949 3.09028 9.64963 3.38542 9.48991 3.57292C9.33019 3.76042 9.06283 3.85417 8.68783 3.85417H0.666992V5.10417H8.68783C9.43783 5.10417 10.0073 4.90972 10.3962 4.52083C10.785 4.13194 10.9795 3.52083 10.9795 2.6875C10.9795 1.89583 10.785 1.30556 10.3962 0.916668C10.0073 0.527779 9.43783 0.333334 8.68783 0.333334ZM0.666992 8.83333V10.0833H12.0837C12.5975 10.0833 12.9725 10.2049 13.2087 10.4479C13.4448 10.691 13.5628 11.0972 13.5628 11.6667C13.5628 12.2361 13.4448 12.6424 13.2087 12.8854C12.9725 13.1285 12.5975 13.25 12.0837 13.25C11.5559 13.25 11.1739 13.1076 10.9378 12.8229C10.7017 12.5382 10.5837 12.1806 10.5837 11.75H9.33366C9.33366 12.5556 9.57671 13.2153 10.0628 13.7292C10.5489 14.2431 11.2225 14.5 12.0837 14.5C12.9309 14.5 13.5975 14.2535 14.0837 13.7604C14.5698 13.2674 14.8128 12.5694 14.8128 11.6667C14.8128 10.7639 14.5698 10.066 14.0837 9.57292C13.5975 9.07986 12.9309 8.83333 12.0837 8.83333H0.666992ZM14.667 1.95833V3.20833C15.1531 3.20833 15.5107 3.34375 15.7399 3.61458C15.9691 3.88542 16.0837 4.27778 16.0837 4.79167C16.0837 5.31944 15.9552 5.70139 15.6982 5.9375C15.4413 6.17361 15.0698 6.29167 14.5837 6.29167H0.666992V7.54167H14.5837C15.4448 7.54167 16.1184 7.29861 16.6045 6.8125C17.0906 6.32639 17.3337 5.65278 17.3337 4.79167C17.3337 3.90278 17.1045 3.20833 16.6462 2.70833C16.1878 2.20833 15.5281 1.95833 14.667 1.95833Z" fill="#529FBF"/>
</svg>
