<svg width="132" height="70" viewBox="0 0 132 70" fill="none" xmlns="http://www.w3.org/2000/svg">
<path d="M9 84C6.5 84 4.375 83.125 2.625 81.375C0.875 79.625 0 77.5 0 75V9C0 6.5 0.875 4.375 2.625 2.625C4.375 0.875 6.5 0 9 0H75C77.5 0 79.625 0.875 81.375 2.625C83.125 4.375 84 6.5 84 9V75C84 77.5 83.125 79.625 81.375 81.375C79.625 83.125 77.5 84 75 84H9ZM102 36C100.3 36 98.875 35.425 97.725 34.275C96.575 33.125 96 31.7 96 30V6C96 4.3 96.575 2.875 97.725 1.725C98.875 0.574999 100.3 0 102 0H126C127.7 0 129.125 0.574999 130.275 1.725C131.425 2.875 132 4.3 132 6V30C132 31.7 131.425 33.125 130.275 34.275C129.125 35.425 127.7 36 126 36H102ZM105 27H123V9H105V27ZM9 75H75V9H9V75ZM18 60H66L50.25 39L39 54L30.75 43.05L18 60ZM102 84C100.3 84 98.875 83.425 97.725 82.275C96.575 81.125 96 79.7 96 78V54C96 52.3 96.575 50.875 97.725 49.725C98.875 48.575 100.3 48 102 48H126C127.7 48 129.125 48.575 130.275 49.725C131.425 50.875 132 52.3 132 54V78C132 79.7 131.425 81.125 130.275 82.275C129.125 83.425 127.7 84 126 84H102ZM105 75H123V57H105V75Z" fill="white"/>
</svg>
