<svg width="96" height="88" viewBox="0 0 96 88" fill="none" xmlns="http://www.w3.org/2000/svg">
<path d="M47.85 100.8C49.45 100.8 50.675 100.525 51.525 99.975C52.375 99.425 52.8 98.6 52.8 97.5C52.8 96.4 52.375 95.55 51.525 94.95C50.675 94.35 49.4 94.05 47.7 94.05C43.5 94.05 39.225 92.725 34.875 90.075C30.525 87.425 27.75 82.75 26.55 76.05C26.35 75.15 25.9 74.425 25.2 73.875C24.5 73.325 23.75 73.05 22.95 73.05C21.85 73.05 21 73.475 20.4 74.325C19.8 75.175 19.6 76.05 19.8 76.95C21.3 85.35 24.85 91.425 30.45 95.175C36.05 98.925 41.85 100.8 47.85 100.8ZM48 120C34.3 120 22.875 115.3 13.725 105.9C4.575 96.5 0 84.8 0 70.8C0 60.8 3.975 49.925 11.925 38.175C19.875 26.425 31.9 13.7 48 0C64.1 13.7 76.125 26.425 84.075 38.175C92.025 49.925 96 60.8 96 70.8C96 84.8 91.425 96.5 82.275 105.9C73.125 115.3 61.7 120 48 120ZM48 111C59.2 111 68.5 107.175 75.9 99.525C83.3 91.875 87 82.3 87 70.8C87 62.9 83.675 53.925 77.025 43.875C70.375 33.825 60.7 23.2 48 12C35.3 23.2 25.625 33.825 18.975 43.875C12.325 53.925 9 62.9 9 70.8C9 82.3 12.7 91.875 20.1 99.525C27.5 107.175 36.8 111 48 111Z" fill="white"/>
</svg>
