<svg width="132" height="94" viewBox="0 0 132 94" fill="none" xmlns="http://www.w3.org/2000/svg">
<path d="M61.5 22.5V0H70.5V22.5H61.5ZM99.9 38.4L93.6 32.1L109.5 16.05L115.8 22.5L99.9 38.4ZM109.5 70.5V61.5H132V70.5H109.5ZM61.5 132V109.5H70.5V132H61.5ZM31.95 38.25L16.2 22.5L22.5 16.2L38.4 32.1L31.95 38.25ZM109.65 115.8L93.6 99.9L99.75 93.75L115.95 109.35L109.65 115.8ZM0 70.5V61.5H22.5V70.5H0ZM22.65 115.8L16.2 109.5L31.95 93.75L35.25 96.75L38.55 99.9L22.65 115.8ZM66 102C56 102 47.5 98.5 40.5 91.5C33.5 84.5 30 76 30 66C30 56 33.5 47.5 40.5 40.5C47.5 33.5 56 30 66 30C76 30 84.5 33.5 91.5 40.5C98.5 47.5 102 56 102 66C102 76 98.5 84.5 91.5 91.5C84.5 98.5 76 102 66 102Z" fill="white"/>
</svg>
