<svg width="120" height="76" viewBox="0 0 120 76" fill="none" xmlns="http://www.w3.org/2000/svg">
<path d="M57.75 0C52.35 0 48.075 1.4 44.925 4.2C41.775 7.00001 40.2 11.25 40.2 16.95H50.4C50.4 14.35 50.975 12.375 52.125 11.025C53.275 9.675 55.15 9 57.75 9C60.45 9 62.375 9.6 63.525 10.8C64.675 12 65.25 14.05 65.25 16.95C65.25 19.85 64.675 21.975 63.525 23.325C62.375 24.675 60.45 25.35 57.75 25.35H0V34.35H57.75C63.15 34.35 67.25 32.95 70.05 30.15C72.85 27.35 74.25 22.95 74.25 16.95C74.25 11.25 72.85 7.00001 70.05 4.2C67.25 1.4 63.15 0 57.75 0ZM0 61.2V70.2H82.2C85.9 70.2 88.6 71.075 90.3 72.825C92 74.575 92.85 77.5 92.85 81.6C92.85 85.7 92 88.625 90.3 90.375C88.6 92.125 85.9 93 82.2 93C78.4 93 75.65 91.975 73.95 89.925C72.25 87.875 71.4 85.3 71.4 82.2H62.4C62.4 88 64.15 92.75 67.65 96.45C71.15 100.15 76 102 82.2 102C88.3 102 93.1 100.225 96.6 96.675C100.1 93.125 101.85 88.1 101.85 81.6C101.85 75.1 100.1 70.075 96.6 66.525C93.1 62.975 88.3 61.2 82.2 61.2H0ZM100.8 11.7V20.7C104.3 20.7 106.875 21.675 108.525 23.625C110.175 25.575 111 28.4 111 32.1C111 35.9 110.075 38.65 108.225 40.35C106.375 42.05 103.7 42.9 100.2 42.9H0V51.9H100.2C106.4 51.9 111.25 50.15 114.75 46.65C118.25 43.15 120 38.3 120 32.1C120 25.7 118.35 20.7 115.05 17.1C111.75 13.5 107 11.7 100.8 11.7Z" fill="white"/>
</svg>
