<?xml version="1.0" encoding="utf-8"?>
<!-- Generator: Adobe Illustrator 26.1.0, SVG Export Plug-In . SVG Version: 6.00 Build 0)  -->
<svg version="1.2" baseProfile="tiny" id="Layer_1" xmlns="http://www.w3.org/2000/svg" xmlns:xlink="http://www.w3.org/1999/xlink"
	 x="0px" y="0px" viewBox="0 0 1153.5 2419" overflow="visible" xml:space="preserve">
<path fill-rule="evenodd" fill="#56AC42" d="M296.7,390.7h180h179.5c15.6,0,29-7.7,36.8-21.3L782.8,214l90-155.9
	c21.3-37,58-58.1,100.7-58.1h180v74.6H973.9c-15.6,0-29,7.7-36.8,21.3l-89.8,155.5l-89.8,155.5c-7.8,13.5-7.8,29,0,42.5l62.8,108.8
	c3.9,6.8,1.6,15.5-5.2,19.4l-40,23.1c-6.8,3.9-15.5,1.6-19.4-5.2L693,486.6c-7.8-13.5-21.2-21.3-36.8-21.3H476.7H297.2
	c-15.6,0-29,7.7-36.8,21.3L170.6,642L80.8,797.5c-7.8,13.5-7.8,29,0,42.5l89.8,155.5l89.8,155.5c7.8,13.5,21.2,21.3,36.8,21.3h125.6
	c7.8,0,14.2,6.4,14.2,14.2l0,46.2c0,7.8-6.4,14.2-14.2,14.2H297.2c-15.6,0-29,7.7-36.8,21.3l-89.8,155.5L80.8,1579
	c-7.8,13.5-7.8,29,0,42.5l89.8,155.5l89.8,155.5c7.8,13.5,21.2,21.3,36.8,21.3h179.5h179.5c15.6,0,29-7.7,36.8-21.3
	c23.3-40.4,46.6-80.7,69.9-121.1l0,0l0,0l52.3,30.2c6.8,3.9,9.1,12.6,5.2,19.4l-62.8,108.8c-7.8,13.5-7.8,29,0,42.5l89.8,155.5
	l89.8,155.5c7.8,13.5,21.2,21.3,36.8,21.3h179.5h0v74.6h0h-180c-42.7,0-79.3-21.2-100.7-58.1l-90-155.9L693,2049.5
	c-7.8-13.5-21.2-21.3-36.8-21.3H476.7h-180c-42.7,0-79.3-21.2-100.7-58.1l-90-155.9l-90-155.9c-21.3-37-21.3-79.3,0-116.2l90-155.9
	l102-176.7l-102-176.7L16,876.9c-21.3-37-21.3-79.3,0-116.2l90-155.9l90-155.9C217.4,411.9,254,390.7,296.7,390.7L296.7,390.7z
	 M1153.5,856v-74.6H949.4l-75.1-130c-3.9-6.8-12.6-9.1-19.4-5.2l-52.3,30.2l-11.4-19.8l93.6,162.1l-102,176.7L693,1151
	c-7.8,13.5-21.2,21.3-36.8,21.3H530.6c-7.8,0-14.2,6.4-14.2,14.2l0,46.2c0,7.8,6.4,14.2,14.2,14.2h125.6c15.6,0,29,7.7,36.8,21.3
	l89.8,155.5l89.8,155.5c7.8,13.5,7.8,29,0,42.5l-62.8,108.8c-3.9,6.8-1.6,15.5,5.2,19.4l52.3,30.2l0,0l0,0l69.9-121.1
	c7.8-13.5,21.2-21.3,36.8-21.3h179.5h0V1563h0H973.9c-15.6,0-29-7.7-36.8-21.3l-89.8-155.5l-89.8-155.5c-7.8-13.5-7.8-29,0-42.5
	l89.8-155.5l89.8-155.5c7.8-13.5,21.2-21.3,36.8-21.3H1153.5z"/>
</svg>
