<?xml version="1.0" encoding="utf-8"?>
<!-- Generator: Adobe Illustrator 26.1.0, SVG Export Plug-In . SVG Version: 6.00 Build 0)  -->
<svg version="1.2" baseProfile="tiny" id="Слой_1"
	 xmlns="http://www.w3.org/2000/svg" xmlns:xlink="http://www.w3.org/1999/xlink" x="0px" y="0px" viewBox="0 0 316.8 59.9"
	 overflow="visible" xml:space="preserve">
<path fill-rule="evenodd" fill="#6F6F6E" d="M18.2,41.2h-7.8l-1.6,7.4H0L9,15h11.2l8.9,33.7h-9L18.2,41.2z M11.5,34.8h5.7l-1.4-6.1
	c-0.2-0.7-0.4-1.8-0.8-3.5s-0.6-2.8-0.7-3.4h-0.1c-0.2,0.8-0.5,2-0.8,3.8c-0.3,1.7-0.5,2.8-0.6,3.2C12.9,28.6,11.5,34.8,11.5,34.8z
	 M33.2,15h20v7.1H41.8v26.5h-8.6V15z M57.2,48.7V15.4c3.3-0.5,6.7-0.7,10-0.7c4.7,0,8.2,0.9,10.4,2.7c2.4,1.9,3.8,4.9,3.6,8
	c0.2,3.1-1,6.2-3.2,8.4c-2.5,2.2-5.9,3.3-10.3,3.3c-0.6,0-1.3,0-1.9-0.1v11.6L57.2,48.7z M65.7,21.5v8.8c0.6,0.1,1.1,0.1,1.7,0.1
	c1.4,0.1,2.8-0.4,3.9-1.3c0.9-0.9,1.4-2.2,1.4-3.5c0.1-1.2-0.4-2.3-1.2-3.2c-0.9-0.8-2.2-1.3-3.5-1.2C67.2,21.3,66.5,21.4,65.7,21.5
	z M98.7,49.2L98.7,49.2c-3,0.1-5.9-0.8-8.2-2.5c-2.2-1.6-4-3.7-5-6.3c-1.1-2.7-1.6-5.6-1.6-8.5c-0.1-4.5,1.3-8.9,4.1-12.4
	c2.7-3.3,6.8-5.2,11.1-5c2.3,0,4.6,0.5,6.7,1.4c1.8,0.9,3.4,2.3,4.6,3.9c1.2,1.6,2,3.5,2.6,5.4c0.6,2,0.9,4,0.9,6.1
	c0,5.6-1.4,10-4.1,13.1C107,47.7,103.3,49.2,98.7,49.2L98.7,49.2z M98.9,42.2L98.9,42.2c1.9,0,3.5-1.1,4.3-2.8
	c1.1-2.4,1.7-5,1.5-7.7c0.1-2.5-0.4-5.1-1.6-7.4c-0.7-1.7-2.4-2.8-4.3-2.9c-1.9,0-3.6,1.2-4.3,2.9c-1.1,2.3-1.7,4.8-1.5,7.4
	c-0.1,2.6,0.4,5.2,1.6,7.5C95.3,41,97,42.1,98.9,42.2L98.9,42.2z M232.6,15h22.5v33.7h-8.6V22.1H241v7.3c0.1,3.9-0.3,7.7-1.3,11.5
	c-0.7,2.7-2.5,5.1-4.9,6.6c-2,1.2-4.3,1.8-6.7,1.8l-1.2-7c1.3-0.2,2.5-0.8,3.5-1.7c1.5-1.7,2.3-5.2,2.3-10.5V15z M276.8,41.2H269
	l-1.6,7.5h-8.8l9-33.7h11.2l8.9,33.7h-9L276.8,41.2L276.8,41.2z M270.1,34.8h5.6l-1.4-6.1c-0.2-0.7-0.4-1.8-0.8-3.5
	s-0.6-2.8-0.7-3.4h-0.1c-0.2,0.8-0.5,2-0.8,3.8c-0.3,1.7-0.5,2.8-0.6,3.2L270.1,34.8L270.1,34.8z M291.8,15H314v7.1h-13.7v4.8
	c1.2-0.2,2.5-0.3,3.7-0.3c3.2-0.1,6.4,0.9,9,2.8c2.4,1.9,3.8,4.9,3.6,8c0.1,2.9-1.1,5.8-3.2,7.8c-2.9,2.5-7.4,3.8-13.6,3.8
	c-2.7,0-5.4-0.2-8.1-0.5V15z M300.3,33.2v9.1c0.7,0.1,1.5,0.2,2.2,0.2c1.4,0.1,2.7-0.4,3.7-1.3c1-0.9,1.5-2.1,1.5-3.5
	c0-1.2-0.4-2.4-1.3-3.2c-1.1-1-2.5-1.5-4-1.4C301.7,33.1,301,33.1,300.3,33.2L300.3,33.2z"/>
<path fill-rule="evenodd" fill="#4FA02D" d="M116.5,17.7c0.2,0.1,0.3,0.2,0.5,0.2c16.9,5.8,34.1,11.1,51,16.7
	c3.6,1.2,3.1,0.9,8.1-0.7c6.7-2.1,13.6-4.7,20.2-6.9c-1-0.5-25.9-8.1-26.3-8.7c-0.2-0.3-0.9-2.1,2.3-1c2.9,1,25.9,8,26.4,9.1l-2,0.9
	c0.2,1,0.2,2,0.1,3.1c0,1.3,0,2.7-0.1,4c-0.8,0.8-1.6,0.9-1.7,2.4c-0.2,1.1,0.5,2.3,1.6,2.6l-0.5,16.6c0,2.2-0.3,4,1.8,4
	s1.8-2.3,1.8-3.8c-0.2-5.5-0.5-11.2-0.5-16.7c2.3-2,1.1-4.5-0.1-4.7c-0.1-2.7,0.1-5.7-0.3-8.4c4.1-1.2,23.9-7.8,26.2-8.4
	C219.4,15.8,171.8,0,170.7,0C170.5,0,117.7,16.8,116.5,17.7z"/>
<path fill-rule="evenodd" fill="#4FA02D" d="M193.3,47.2V31.4c-2.9,1-20.9,7.6-22.6,7.6c-0.6,0-9.7-3.2-11.3-3.6
	c-2.2-0.6-10-3.5-11.3-3.6v15.4C159.4,56.7,182.1,57.4,193.3,47.2z"/>
</svg>
